<svg width="80" height="80" viewBox="0 0 80 80" fill="none" xmlns="http://www.w3.org/2000/svg">
  <rect width="80" height="80" rx="18" fill="url(#npc-bg)"/>
  <g filter="url(#npc-glow)">
    <path d="M24 28C24 21.3726 29.3726 16 36 16H44C50.6274 16 56 21.3726 56 28V34C56 40.6274 50.6274 46 44 46H36C29.3726 46 24 40.6274 24 34V28Z" fill="url(#npc-bubble)"/>
    <path d="M32 50L25 58L34 57L37 64L44 54" stroke="#0b1526" stroke-width="3" stroke-linecap="round" stroke-linejoin="round"/>
    <circle cx="35" cy="32" r="4" fill="#0b1526"/>
    <circle cx="45" cy="32" r="4" fill="#0b1526"/>
    <path d="M36 40C37.5 42.2 42.5 42.2 44 40" stroke="#0b1526" stroke-width="3" stroke-linecap="round"/>
  </g>
  <defs>
    <linearGradient id="npc-bg" x1="16" y1="12" x2="68" y2="68" gradientUnits="userSpaceOnUse">
      <stop stop-color="#ffb3c6"/>
      <stop offset="1" stop-color="#ff6f91"/>
    </linearGradient>
    <linearGradient id="npc-bubble" x1="26" y1="18" x2="54" y2="44" gradientUnits="userSpaceOnUse">
      <stop stop-color="#fff5f9"/>
      <stop offset="1" stop-color="#ffc9de"/>
    </linearGradient>
    <filter id="npc-glow" x="18" y="12" width="44" height="56" filterUnits="userSpaceOnUse" color-interpolation-filters="sRGB">
      <feGaussianBlur stdDeviation="1.2" result="blur"/>
      <feBlend in="SourceGraphic" in2="blur" mode="normal"/>
    </filter>
  </defs>
</svg>
