<svg width="80" height="80" viewBox="0 0 80 80" fill="none" xmlns="http://www.w3.org/2000/svg">
  <rect width="80" height="80" rx="18" fill="url(#tech-bg)"/>
  <g filter="url(#tech-glow)">
    <circle cx="40" cy="40" r="22" fill="url(#tech-core)"/>
    <path d="M40 23L44.2 26.4L51.4 25.6L52.8 32.8L58.2 36L55.8 42.8L58.2 49.6L52.8 52.8L51.4 60L44.2 59.2L40 62.6L35.8 59.2L28.6 60L27.2 52.8L21.8 49.6L24.2 42.8L21.8 36L27.2 32.8L28.6 25.6L35.8 26.4L40 23Z" stroke="#0d1b2a" stroke-width="3" stroke-linejoin="round" fill="url(#tech-gear)"/>
    <circle cx="40" cy="40" r="8" fill="#0d1b2a"/>
    <circle cx="40" cy="40" r="4" fill="url(#tech-core-light)"/>
  </g>
  <defs>
    <linearGradient id="tech-bg" x1="14" y1="10" x2="66" y2="70" gradientUnits="userSpaceOnUse">
      <stop stop-color="#8e9eff"/>
      <stop offset="1" stop-color="#5b6cfb"/>
    </linearGradient>
    <linearGradient id="tech-core" x1="24" y1="24" x2="56" y2="56" gradientUnits="userSpaceOnUse">
      <stop stop-color="#d7f3ff"/>
      <stop offset="1" stop-color="#a8caff"/>
    </linearGradient>
    <linearGradient id="tech-gear" x1="28" y1="28" x2="52" y2="52" gradientUnits="userSpaceOnUse">
      <stop stop-color="#b9c6ff"/>
      <stop offset="1" stop-color="#8093ff"/>
    </linearGradient>
    <linearGradient id="tech-core-light" x1="36" y1="36" x2="44" y2="44" gradientUnits="userSpaceOnUse">
      <stop stop-color="#93f5ff"/>
      <stop offset="1" stop-color="#55d8ff"/>
    </linearGradient>
    <filter id="tech-glow" x="10" y="10" width="60" height="60" filterUnits="userSpaceOnUse" color-interpolation-filters="sRGB">
      <feGaussianBlur stdDeviation="1.2" result="blur"/>
      <feBlend in="SourceGraphic" in2="blur" mode="normal"/>
    </filter>
  </defs>
</svg>
