<?xml version="1.0" encoding="UTF-8"?>
<svg xmlns="http://www.w3.org/2000/svg" viewBox="0 0 1440 900" role="img" aria-labelledby="title desc">
  <title id="title">Main story constellation artwork</title>
  <desc id="desc">A cosmic night sky with radiating light, swirling clouds and shimmering constellations to represent the Palworld main story.</desc>
  <defs>
    <radialGradient id="nebula" cx="50%" cy="40%" r="70%">
      <stop offset="0%" stop-color="#fdf6e3" stop-opacity="0.95"/>
      <stop offset="35%" stop-color="#f6c177" stop-opacity="0.8"/>
      <stop offset="65%" stop-color="#7c3aed" stop-opacity="0.75"/>
      <stop offset="100%" stop-color="#111827" stop-opacity="1"/>
    </radialGradient>
    <linearGradient id="aurora" x1="0%" y1="0%" x2="100%" y2="100%">
      <stop offset="0%" stop-color="#38bdf8" stop-opacity="0.9"/>
      <stop offset="50%" stop-color="#6366f1" stop-opacity="0.75"/>
      <stop offset="100%" stop-color="#f97316" stop-opacity="0.65"/>
    </linearGradient>
    <linearGradient id="comet" x1="0%" y1="50%" x2="100%" y2="50%">
      <stop offset="0%" stop-color="#fde68a" stop-opacity="0"/>
      <stop offset="40%" stop-color="#fde68a" stop-opacity="0.45"/>
      <stop offset="100%" stop-color="#facc15" stop-opacity="0.95"/>
    </linearGradient>
    <g id="spark">
      <circle cx="0" cy="0" r="2" fill="#fef3c7"/>
      <path d="M0,-9 L0,9" stroke="#fef3c7" stroke-width="1.4" stroke-linecap="round" opacity="0.9"/>
      <path d="M-9,0 L9,0" stroke="#fef3c7" stroke-width="1.4" stroke-linecap="round" opacity="0.9"/>
    </g>
  </defs>
  <rect width="1440" height="900" fill="#020617"/>
  <rect width="1440" height="900" fill="url(#nebula)" opacity="0.95"/>
  <g opacity="0.45">
    <path d="M-80 620 C220 520 480 640 720 520 C960 400 1180 460 1520 340 L1520 900 L-80 900 Z" fill="url(#aurora)"/>
    <path d="M-40 300 C200 360 480 200 760 320 C1040 440 1280 320 1500 420 L1500 900 L-40 900 Z" fill="url(#aurora)" opacity="0.5"/>
  </g>
  <g opacity="0.75">
    <path d="M240 260 C400 210 520 260 640 180 C820 60 1020 120 1180 80" fill="none" stroke="url(#comet)" stroke-width="14" stroke-linecap="round"/>
  </g>
  <g fill="#fef9c3" opacity="0.75">
    <circle cx="240" cy="180" r="3"/>
    <circle cx="320" cy="420" r="2"/>
    <circle cx="540" cy="320" r="2.5"/>
    <circle cx="680" cy="140" r="3.5"/>
    <circle cx="780" cy="420" r="2"/>
    <circle cx="920" cy="260" r="2.8"/>
    <circle cx="1060" cy="360" r="2.2"/>
    <circle cx="1240" cy="210" r="3.2"/>
    <circle cx="360" cy="620" r="2.4"/>
    <circle cx="520" cy="540" r="2.8"/>
    <circle cx="980" cy="580" r="3.1"/>
    <circle cx="1180" cy="540" r="2.2"/>
  </g>
  <g opacity="0.85" transform="translate(300 140) scale(1.05)">
    <use href="#spark"/>
    <use href="#spark" transform="translate(220 160) scale(0.9) rotate(18)"/>
    <use href="#spark" transform="translate(480 40) scale(1.2) rotate(-12)"/>
    <use href="#spark" transform="translate(720 200) scale(0.95) rotate(6)"/>
    <use href="#spark" transform="translate(920 80) scale(1.05) rotate(28)"/>
  </g>
  <g fill="none" stroke="#a855f7" stroke-width="2.6" stroke-linecap="round" stroke-linejoin="round" opacity="0.7">
    <path d="M320 480 L460 380 L620 430 L700 310 L860 360 L990 250"/>
    <path d="M420 620 L560 520 L720 560 L840 450 L980 520" opacity="0.6"/>
  </g>
  <g fill="none" stroke="#facc15" stroke-width="4" stroke-linecap="round" opacity="0.6">
    <path d="M180 700 Q360 580 540 660 T900 640 T1260 560"/>
  </g>
  <g opacity="0.28" fill="#ffffff">
    <circle cx="180" cy="120" r="28"/>
    <circle cx="1280" cy="180" r="22"/>
    <circle cx="1120" cy="620" r="26"/>
  </g>
</svg>
