<svg xmlns="http://www.w3.org/2000/svg" viewBox="0 0 96 96" role="img" aria-labelledby="title desc">
  <title id="title">Swift passive icon</title>
  <desc id="desc">Azure badge with the letter S symbolising the Swift passive trait.</desc>
  <defs>
    <linearGradient id="swiftGradient" x1="0%" y1="0%" x2="100%" y2="100%">
      <stop offset="0%" stop-color="#bae6fd"/>
      <stop offset="50%" stop-color="#38bdf8"/>
      <stop offset="100%" stop-color="#0284c7"/>
    </linearGradient>
    <radialGradient id="swiftGlow" cx="50%" cy="35%" r="60%">
      <stop offset="0%" stop-color="rgba(255,255,255,0.65)"/>
      <stop offset="100%" stop-color="rgba(255,255,255,0)"/>
    </radialGradient>
  </defs>
  <rect width="96" height="96" rx="24" fill="url(#swiftGradient)"/>
  <circle cx="48" cy="38" r="28" fill="url(#swiftGlow)"/>
  <path d="M32 34c0-8.8 7-14.8 18-14.8 7.2 0 12.8 2.6 16.8 7.8l-8.8 6.2c-2.4-2.8-4.6-3.8-8-3.8-3.6 0-5.6 1.6-5.6 4 0 2 1.2 3 5.6 4.4l2.6.8c8.4 2.4 12.6 6.2 12.6 12.6 0 8.8-7.4 14.6-18.6 14.6-8 0-14.6-2.6-19.2-8l9-6.2c2.8 3.4 5.6 4.6 9.8 4.6 4.2 0 6.4-1.8 6.4-4.2 0-2-1-3.2-5-4.4l-2.6-.8C36 44.4 32 40.2 32 34z" fill="#0c3c5c" opacity="0.26"/>
  <text x="48" y="66" text-anchor="middle" font-family="'Poppins','Trebuchet MS',sans-serif" font-size="34" font-weight="700" fill="#0c3c5c">
    S
  </text>
</svg>
